<?xml version="1.0" encoding="UTF-8" standalone="no"?>
<!DOCTYPE svg PUBLIC "-//W3C//DTD SVG 1.1//EN" "http://www.w3.org/Graphics/SVG/1.1/DTD/svg11.dtd">
<svg version="1.1" xmlns="http://www.w3.org/2000/svg" xmlns:xlink="http://www.w3.org/1999/xlink" preserveAspectRatio="xMidYMid meet" viewBox="0 0 500 500" width="500" height="500"><defs><path d="M416.27 220.43C382.46 240.15 320.22 261.33 270.22 278.34C269.14 278.7 263.73 280.55 254 283.86C291.65 262.71 312.57 250.95 316.75 248.6C316.95 248.49 317.29 248.26 317.6 248.06C318.64 247.44 323.89 244.34 333.32 238.77C333.86 238.45 334.15 238.28 334.21 238.24C353.93 226.74 372.98 214.13 391.27 200.48C408.07 188.16 424 174.69 438.94 160.17C460.7 139.3 477.14 113.5 486.86 84.95C488.09 80.85 489.08 76.67 489.82 72.45C494.05 84.19 496.2 96.58 496.16 109.06C496.06 137.75 484.55 165.23 464.18 185.43C449.72 199.03 433.63 210.78 416.27 220.43ZM213.21 332.05C210.72 320.53 204.81 310.03 196.25 301.93C187.95 293.54 177.44 287.69 165.94 285.06C166.67 284.33 172.52 278.47 173.25 277.74C173.52 277.52 173.78 277.3 174.02 277.05C180.47 270.56 189.29 267.01 198.44 267.23C206.93 267.22 215.07 270.63 221.03 276.68C221.3 276.98 221.6 277.25 221.92 277.5C234.28 290.71 233.88 311.36 221.03 324.09C220.81 324.33 220.6 324.59 220.41 324.86C218.97 326.3 213.93 331.33 213.21 332.05ZM84 461.23C75.87 469.34 58.24 465.42 45.46 452.65C39.48 446.73 35.25 439.28 33.23 431.12C31.47 425.21 32.84 418.82 36.85 414.15C44.06 406.95 80.09 370.93 144.96 306.11C145.05 306.02 145.1 305.97 145.11 305.96C148.11 303.09 152.15 301.56 156.3 301.75C156.3 301.75 156.34 301.75 156.34 301.75C166.79 302.52 176.56 307.17 183.76 314.78C194.41 324.72 200.6 343.35 192.68 352.51C192.65 352.55 192.48 352.74 192.18 353.09C134.48 410.76 98.42 446.81 84 461.23ZM239.63 271.19C377.94 132.83 454.78 55.97 470.14 40.59C474.79 53.25 474.67 67.17 469.81 79.75C460.94 105.49 446.04 128.74 426.35 147.54C412 161.45 396.71 174.37 380.59 186.18C362.97 199.34 344.62 211.5 325.63 222.61C325.57 222.64 325.28 222.82 324.74 223.13C314.83 228.97 309.32 232.22 308.22 232.87C308.08 232.95 307.84 233.11 307.61 233.27C303.09 235.81 280.48 248.51 239.79 271.38L239.63 271.19ZM227.06 258.51C226.53 258.14 226.02 257.74 225.46 257.38C230.44 248.93 270.27 181.39 275.25 172.94C286.43 153.79 298.67 135.28 311.94 117.51C323.77 101.41 336.68 86.13 350.57 71.77C387.75 34.66 433.58 16.68 457.49 27.99C457.5 27.99 250.11 235.46 227.06 258.51ZM312.72 33.93C332.91 13.56 360.36 2.06 389.04 1.96C389.09 1.96 389.52 1.96 389.58 1.96C401.88 1.98 414.09 4.13 425.67 8.3C392.06 16.28 361.55 33.98 337.95 59.2C323.46 74.16 310 90.08 297.66 106.85C283.89 125.26 271.19 144.44 259.6 164.3C256.76 169.12 242.55 193.23 216.96 236.63C236.25 181.75 246.97 151.26 249.11 145.16C249.17 145 249.22 144.83 249.28 144.67C256.81 122.89 266.32 101.85 277.69 81.81C287.37 64.48 299.13 48.4 312.72 33.93ZM14.14 63.5C5.26 57.86 -0.56 48.49 -1.69 38.03C-3.25 23.54 4.51 9.64 17.65 3.36C30.8 -2.92 46.49 -0.23 56.78 10.09C58.58 11.91 60.18 13.91 61.55 16.06C64.94 21.42 68.34 27.41 71.86 33.64C81.42 53.19 94.47 70.84 110.36 85.72C105.73 89.78 101.12 94.02 96.59 98.55C92.05 103.09 87.82 107.7 83.76 112.32C68.89 96.42 51.25 83.37 31.71 73.79C25.48 70.26 19.5 66.87 14.14 63.5ZM130.59 91.89C139.24 83.85 149.57 77.84 160.84 74.31C165.49 78.96 188.74 102.2 230.58 144.04C208.34 207.33 195.98 242.49 193.51 249.52C184.44 250.27 175.74 253.44 168.31 258.69C158.72 249.1 81.99 172.36 72.4 162.77C75.92 151.51 81.92 141.19 89.96 132.56C102.04 117.6 115.66 103.97 130.59 91.89ZM8.08 442.94C8.86 442.16 15.11 435.91 15.89 435.13C18.65 446.55 24.52 456.98 32.86 465.26C41.04 473.7 51.48 479.62 62.93 482.3C62.16 483.07 55.96 489.27 55.18 490.05C42.16 503.2 20.95 503.33 7.78 490.33C-5.18 477.15 -5.06 455.96 8.08 442.94ZM239.34 329.71C244.51 322.32 247.62 313.7 248.38 304.71C256.97 301.73 266.14 298.59 275.98 295.25C300.65 286.85 328.25 277.45 354.17 267.65C361.14 274.61 416.85 330.33 423.82 337.3C423.26 343.32 412.42 363.51 386.94 388.9C361.47 414.28 341.4 425.18 335.37 425.74C316.16 406.54 258.55 348.92 239.34 329.71ZM460.08 499.77C449.63 498.65 440.27 492.82 434.63 483.95C431.24 478.59 427.85 472.6 424.32 466.38C414.76 446.85 401.73 429.22 385.87 414.36C392.2 408.79 397.17 403.93 399.59 401.51C402.01 399.08 406.88 394.1 412.45 387.76C427.32 403.63 444.95 416.66 464.47 426.22C470.73 429.79 476.7 433.14 482.02 436.53C484.19 437.9 486.2 439.5 488.02 441.3C501.44 454.74 501.44 476.51 488.02 489.95C480.69 497.31 470.4 500.92 460.08 499.77Z" id="aTfiTtjoM"></path></defs><g><g><g><use xlink:href="#aTfiTtjoM" opacity="1" fill="#98212a" fill-opacity="1"></use><g><use xlink:href="#aTfiTtjoM" opacity="1" fill-opacity="0" stroke="#000000" stroke-width="1" stroke-opacity="0"></use></g></g></g></g></svg>